<?xml version="1.0"?>
<svg xmlns:rdf="http://www.w3.org/1999/02/22-rdf-syntax-ns#" xmlns="http://www.w3.org/2000/svg" xmlns:cc="http://web.resource.org/cc/" xmlns:xlink="http://www.w3.org/1999/xlink" xmlns:dc="http://purl.org/dc/elements/1.1/" xmlns:svg="http://www.w3.org/2000/svg" id="Layer_1" xml:space="preserve" overflow="visible" viewBox="0 0 140.891 185.439" version="1.1" enable-background="new 0 0 140.891 185.439">
	<path d="m36.745 69.429l-36.745 45.791 20.916 12.436 22.612-50.876c0-0.007-6.219-5.095-6.783-7.355z" fill="#D41920"/>
		<path d="m71.296 182.27c-4.353 2.372 16.602-2.456 23.494 2.621 3.344 2.463 10.338-4.422 24.436-0.819 8.467 2.163-0.627-4.094-5.953-6.551-5.33-2.45-19.741-7.37-41.984 4.75z" fill="#FCB912"/>
		<path d="m91.566 182.27c4.354 2.372-16.603-2.456-23.494 2.621-3.344 2.463-10.338-4.422-24.435-0.819-8.466 2.163 0.626-4.094 5.952-6.551 5.326-2.45 19.736-7.37 41.977 4.75z" fill="#FCB912"/>
		<linearGradient id="XMLID_11_" y2="135.4" gradientUnits="userSpaceOnUse" y1="110.9" x2="148.04" x1="129.95">
			<stop stop-color="#000119" offset="0"/>
			<stop stop-color="#496381" offset="1"/>
		</linearGradient>
		<path d="m120.67 82.053s32.057 53.638 15.453 47.861c-17.335-6.027-21.481-39.946-22.612-45.6-1.13-5.649 5.27-3.764 7.16-2.257z" fill="url(#XMLID_11_)"/>
				<path d="m78.576 22.133c-31.656-0.397-66.704 86.301-52.435 126.37 8.747 24.565 100.88 25.85 104.3 0 4.66-35.17-16.44-125.92-51.864-126.37z" fill="#000119"/>
					<linearGradient id="XMLID_12_" x1="-9.6348" gradientUnits="userSpaceOnUse" y1="73.344" gradientTransform="translate(96.235 27.436)" x2="27.892" y2="15.522">
					<stop stop-color="#000119" offset="0"/>
					<stop stop-color="#496381" offset="1"/>
				</linearGradient>
				<path d="m126.4 143.25c-1.852-37.83-12.025-118.1-48.205-118.1-26.57 0-50.876 71.228-48.015 118.1 1.468 24.01 97.4 24.03 96.22 0z" fill="url(#XMLID_12_)"/>
				<linearGradient id="XMLID_13_" y2="229.41" gradientUnits="userSpaceOnUse" y1="-8.0161" x2="78.292" x1="78.292">
					<stop stop-color="#fff" offset="0"/>
					<stop stop-color="#B9D1EC" offset="1"/>
				</linearGradient>
				<path d="m100.58 71.968c0.662-2.729 1.661-11.399 1.582-14.513-0.33-12.776-7.392-22.958-15.774-22.741-2.739 0.069-5.278 1.246-7.446 3.236-2.012-1.876-4.376-3.023-6.957-3.195-8.363-0.555-15.835 9.334-16.68 22.085-0.209 3.152-0.662 11.874-0.093 14.661-17.585 14.718-29.069 40.524-29.069 77.005 0 13.519 23.35 32.684 52.151 32.684 28.803 0 52.15-19.165 52.15-32.684 0-36.11-12.57-61.632-29.86-76.542z" fill="url(#XMLID_13_)"/>
					<path d="m78.285 71.501s7.712-2.582 14.789-3.539l0.02-0.375s-10.288-1.072-14.451-5.11l-0.703 0.004c-4.162 4.038-14.494 5.111-14.494 5.111l0.02 0.375c7.076 0.957 14.819 3.534 14.819 3.534z" fill="#FCB912"/>
			<linearGradient id="XMLID_14_" x1="-1041" gradientUnits="userSpaceOnUse" y1="908.97" gradientTransform="matrix(.969 -.2472 .2472 .969 819.63 -1048.5)" x2="-1078" y2="968.31">
			<stop stop-color="#000119" offset="0"/>
			<stop stop-color="#496381" offset="1"/>
		</linearGradient>
		<path d="m31.388 83.025s-32.69 63.696-10.317 52.026c23.359-12.181 20.917-46.561 21.14-52.453 0.223-5.889-8.494-1.721-10.823 0.428z" fill="url(#XMLID_14_)"/>
		<ellipse cy="52.658" cx="70.285" rx="2.638" ry="3.034"/>
		<ellipse cy="52.658" cx="86.114" rx="2.638" ry="3.034"/>
			<defs>
				<path id="XMLID_5_" d="m102.62 30.852c-2.556-11.223-8.88-22.56-18.374-29.276-7.006-4.951-20.233 3.117-27.865 5.666-9.548 2.367 3.258 9.774 3.501 13.9 0.25 4.254-2.173 6.054 2.587 7.43 4.687 1.354 9.473 2.37 14.312 3.005 8.451 1.108 17.49 1.322 25.839-0.725"/>
			</defs>
			<use xlink:href="#XMLID_5_" fill="#D41920"/>
			<clipPath id="XMLID_15_">
				<use xlink:href="#XMLID_5_"/>
			</clipPath>
			<path clip-path="url(#XMLID_15_)" d="m58.126 28.243c10.489-7.398 11.503-19.224 20.494-27.588-9.796 2.463-20.296 7.312-25.072 8.954-7.534 2.59 1.405 11.326 4.578 18.634" fill="#B00D28"/>
		<linearGradient id="XMLID_16_" y2="42.95" gradientUnits="userSpaceOnUse" y1="13.418" x2="53.124" x1="128.5">
			<stop stop-color="#fff" offset=".5"/>
			<stop stop-color="#A9BFD8" offset="1"/>
		</linearGradient>
		<path d="m55.608 34.625c7.484 4.725 17.228 5.97 25.87 6.153 3.291 0.07 22.982 0.264 22.982-5.163 0-5.408-0.389-8.392-5.694-8.041-6.664 0.439-13.325 0.567-19.995 0.215-6.333-0.334-12.656-0.88-18.95-1.639-4.094-0.493-5.286 5.124-4.213 8.475" fill="url(#XMLID_16_)"/>
		<path d="m80.261 0.058c-10.643 0.454-19.296 6.011-29.671 7.647-4.71 9.57-3.252 22.407-0.206 32.202 3.643-16.605 17.53-29.166 29.877-39.849" fill="#D41920"/>
			<defs>
				<path id="XMLID_8_" d="m55.627 41.263c-0.646-7.921-12.396-6.82-11.754 1.046 0.649 7.92 12.396 6.819 11.754-1.046"/>
			</defs>
			<radialGradient id="XMLID_17_" gradientUnits="userSpaceOnUse" cy="41.785" cx="49.75" r="5.9251">
				<stop stop-color="#fff" offset="0"/>
				<stop stop-color="#B9D1EC" offset="1"/>
			</radialGradient>
			<use xlink:href="#XMLID_8_" fill="url(#XMLID_17_)"/>
			<clipPath id="XMLID_18_">
				<use xlink:href="#XMLID_8_"/>
			</clipPath>
	<path d="m125.4 80.81c0.565-2.198-2.149-6.367-5.155-7.306-2.242 2.833-5.463 3.022-9.314 2.987-10.545-0.094-21.094-1.12-31.348-2.698-10.921-1.68-21.719-4.017-31.816-7.227-3.798-1.208-7.859-1.826-8.796-4.997-8.645 1.127-4.516 5.029-5.515 8.286-0.501 1.643-1.22 3.271-2.295 4.796-0.979 1.352 3.078 3.15 4.294 3.75 8.533 4.213 19.042 6.974 29.11 9.13 12.437 2.664 25.504 4.28 38.608 4.503 4.949 0.086 9.988 0.008 14.862-0.582 1.343-0.164 6.437-2.292 6.437-3.671-0.25-2.879 0.21-4.126 0.93-6.971" fill="#D41920"/>
<metadata><rdf:RDF><cc:Work><dc:format>image/svg+xml</dc:format><dc:type rdf:resource="http://purl.org/dc/dcmitype/StillImage"/><cc:license rdf:resource="http://creativecommons.org/licenses/publicdomain/"/><dc:publisher><cc:Agent rdf:about="http://openclipart.org/"><dc:title>Openclipart</dc:title></cc:Agent></dc:publisher><dc:title>christmas penguin</dc:title><dc:date>2012-07-04T03:36:26</dc:date><dc:description>cute christmas penguin with hat and scarf</dc:description><dc:source>http://openclipart.org/detail/171028/christmas-penguin-by-liesder-171028</dc:source><dc:creator><cc:Agent><dc:title>LiesdeR</dc:title></cc:Agent></dc:creator><dc:subject><rdf:Bag><rdf:li>christmas</rdf:li><rdf:li>christmas character</rdf:li><rdf:li>clip art</rdf:li><rdf:li>clipart</rdf:li><rdf:li>cute</rdf:li><rdf:li>penguin</rdf:li></rdf:Bag></dc:subject></cc:Work><cc:License rdf:about="http://creativecommons.org/licenses/publicdomain/"><cc:permits rdf:resource="http://creativecommons.org/ns#Reproduction"/><cc:permits rdf:resource="http://creativecommons.org/ns#Distribution"/><cc:permits rdf:resource="http://creativecommons.org/ns#DerivativeWorks"/></cc:License></rdf:RDF></metadata></svg>
